<mxfile host="Electron" modified="2023-12-06T10:14:22.994Z" agent="Mozilla/5.0 (Windows NT 10.0; Win64; x64) AppleWebKit/537.36 (KHTML, like Gecko) draw.io/22.1.2 Chrome/114.0.5735.289 Electron/25.9.4 Safari/537.36" etag="dy7dZuctmGy6AocigiyT" version="22.1.2" type="device">
  <diagram name="P치gina-1" id="azETASIMsSq5Nfd-9XnR">
    <mxGraphModel dx="1098" dy="1170" grid="1" gridSize="10" guides="1" tooltips="1" connect="1" arrows="1" fold="1" page="1" pageScale="1" pageWidth="1169" pageHeight="827" math="0" shadow="0">
      <root>
        <mxCell id="0" />
        <mxCell id="1" parent="0" />
        <mxCell id="708Kx1LHansNs96wbsgi-1" value="Administrador" style="shape=umlLifeline;perimeter=lifelinePerimeter;container=1;collapsible=0;recursiveResize=0;rounded=0;shadow=0;strokeWidth=1;" vertex="1" parent="1">
          <mxGeometry x="120" y="80" width="100" height="360" as="geometry" />
        </mxCell>
        <mxCell id="708Kx1LHansNs96wbsgi-2" value="" style="points=[];perimeter=orthogonalPerimeter;rounded=0;shadow=0;strokeWidth=1;" vertex="1" parent="708Kx1LHansNs96wbsgi-1">
          <mxGeometry x="45" y="60" width="10" height="280" as="geometry" />
        </mxCell>
        <mxCell id="708Kx1LHansNs96wbsgi-3" value="Interfaz de &#xa;usuario" style="shape=umlLifeline;perimeter=lifelinePerimeter;container=1;collapsible=0;recursiveResize=0;rounded=0;shadow=0;strokeWidth=1;" vertex="1" parent="1">
          <mxGeometry x="300" y="80" width="100" height="360" as="geometry" />
        </mxCell>
        <mxCell id="708Kx1LHansNs96wbsgi-4" value="" style="points=[];perimeter=orthogonalPerimeter;rounded=0;shadow=0;strokeWidth=1;" vertex="1" parent="708Kx1LHansNs96wbsgi-3">
          <mxGeometry x="45" y="60" width="10" height="280" as="geometry" />
        </mxCell>
        <mxCell id="708Kx1LHansNs96wbsgi-5" value="Datos dataset" style="verticalAlign=bottom;endArrow=block;entryX=0;entryY=0;shadow=0;strokeWidth=1;" edge="1" parent="708Kx1LHansNs96wbsgi-3">
          <mxGeometry relative="1" as="geometry">
            <mxPoint x="57" y="284" as="sourcePoint" />
            <mxPoint x="202" y="284.0000000000001" as="targetPoint" />
          </mxGeometry>
        </mxCell>
        <mxCell id="708Kx1LHansNs96wbsgi-6" value="Datos actualizados" style="verticalAlign=bottom;endArrow=open;dashed=1;endSize=8;exitX=0;exitY=0.95;shadow=0;strokeWidth=1;" edge="1" parent="1">
          <mxGeometry relative="1" as="geometry">
            <mxPoint x="175" y="394" as="targetPoint" />
            <mxPoint x="345" y="394.49999999999966" as="sourcePoint" />
          </mxGeometry>
        </mxCell>
        <mxCell id="708Kx1LHansNs96wbsgi-7" value="Acceder pantalla administraci칩n" style="verticalAlign=bottom;endArrow=block;entryX=0;entryY=0;shadow=0;strokeWidth=1;" edge="1" parent="1">
          <mxGeometry relative="1" as="geometry">
            <mxPoint x="175" y="149.00000000000068" as="sourcePoint" />
            <mxPoint x="345" y="149.00000000000068" as="targetPoint" />
          </mxGeometry>
        </mxCell>
        <mxCell id="708Kx1LHansNs96wbsgi-8" value="Datos de usuarios + datasets" style="verticalAlign=bottom;endArrow=block;entryX=1;entryY=0;shadow=0;strokeWidth=1;dashed=1;" edge="1" parent="1">
          <mxGeometry relative="1" as="geometry">
            <mxPoint x="342" y="179" as="sourcePoint" />
            <mxPoint x="177" y="179" as="targetPoint" />
          </mxGeometry>
        </mxCell>
        <mxCell id="708Kx1LHansNs96wbsgi-9" value="Opci칩n procesar dataset" style="verticalAlign=bottom;endArrow=open;endSize=8;exitX=1;exitY=0.95;shadow=0;strokeWidth=1;" edge="1" parent="1" target="708Kx1LHansNs96wbsgi-4">
          <mxGeometry relative="1" as="geometry">
            <mxPoint x="240" y="345" as="targetPoint" />
            <mxPoint x="180" y="364" as="sourcePoint" />
          </mxGeometry>
        </mxCell>
        <mxCell id="708Kx1LHansNs96wbsgi-10" value="Opci칩n Crear dataset" style="verticalAlign=bottom;endArrow=block;entryX=0;entryY=0;shadow=0;strokeWidth=1;" edge="1" parent="1">
          <mxGeometry relative="1" as="geometry">
            <mxPoint x="175" y="285.0000000000001" as="sourcePoint" />
            <mxPoint x="345" y="285.0000000000001" as="targetPoint" />
          </mxGeometry>
        </mxCell>
        <mxCell id="708Kx1LHansNs96wbsgi-11" value="Datos actualizados" style="verticalAlign=bottom;endArrow=block;entryX=1;entryY=0;shadow=0;strokeWidth=1;dashed=1;" edge="1" parent="1">
          <mxGeometry relative="1" as="geometry">
            <mxPoint x="345" y="320" as="sourcePoint" />
            <mxPoint x="180" y="320" as="targetPoint" />
          </mxGeometry>
        </mxCell>
        <mxCell id="708Kx1LHansNs96wbsgi-12" value="Backend" style="shape=umlLifeline;perimeter=lifelinePerimeter;container=1;collapsible=0;recursiveResize=0;rounded=0;shadow=0;strokeWidth=1;" vertex="1" parent="1">
          <mxGeometry x="450" y="80" width="130" height="360" as="geometry" />
        </mxCell>
        <mxCell id="708Kx1LHansNs96wbsgi-13" value="" style="points=[];perimeter=orthogonalPerimeter;rounded=0;shadow=0;strokeWidth=1;" vertex="1" parent="708Kx1LHansNs96wbsgi-12">
          <mxGeometry x="61" y="60" width="10" height="280" as="geometry" />
        </mxCell>
        <mxCell id="708Kx1LHansNs96wbsgi-14" value="" style="endArrow=classic;html=1;rounded=1;entryX=0.95;entryY=0.907;entryDx=0;entryDy=0;entryPerimeter=0;" edge="1" parent="708Kx1LHansNs96wbsgi-12">
          <mxGeometry width="50" height="50" relative="1" as="geometry">
            <mxPoint x="71" y="211" as="sourcePoint" />
            <mxPoint x="86.5" y="236.1199999999999" as="targetPoint" />
            <Array as="points">
              <mxPoint x="106" y="211" />
              <mxPoint x="136" y="211" />
              <mxPoint x="136" y="235" />
            </Array>
          </mxGeometry>
        </mxCell>
        <mxCell id="708Kx1LHansNs96wbsgi-15" value="Servicio de carga" style="shape=umlLifeline;perimeter=lifelinePerimeter;container=1;collapsible=0;recursiveResize=0;rounded=0;shadow=0;strokeWidth=1;" vertex="1" parent="1">
          <mxGeometry x="620" y="80" width="130" height="360" as="geometry" />
        </mxCell>
        <mxCell id="708Kx1LHansNs96wbsgi-16" value="" style="points=[];perimeter=orthogonalPerimeter;rounded=0;shadow=0;strokeWidth=1;" vertex="1" parent="708Kx1LHansNs96wbsgi-15">
          <mxGeometry x="58" y="60" width="10" height="190" as="geometry" />
        </mxCell>
        <mxCell id="708Kx1LHansNs96wbsgi-20" value="&lt;font style=&quot;font-size: 11px;&quot;&gt;Registro en &lt;br&gt;Base de datos&lt;/font&gt;" style="text;html=1;align=center;verticalAlign=middle;resizable=0;points=[];autosize=1;strokeColor=none;fillColor=none;" vertex="1" parent="1">
          <mxGeometry x="577" y="299" width="90" height="40" as="geometry" />
        </mxCell>
        <mxCell id="708Kx1LHansNs96wbsgi-21" value="Datos proceso" style="verticalAlign=bottom;endArrow=open;dashed=1;endSize=8;shadow=0;strokeWidth=1;" edge="1" parent="1">
          <mxGeometry relative="1" as="geometry">
            <mxPoint x="360" y="394" as="targetPoint" />
            <mxPoint x="500" y="394" as="sourcePoint" />
          </mxGeometry>
        </mxCell>
        <mxCell id="708Kx1LHansNs96wbsgi-29" value="Datos de usuario" style="verticalAlign=bottom;endArrow=block;entryX=0;entryY=0;shadow=0;strokeWidth=1;" edge="1" parent="1">
          <mxGeometry relative="1" as="geometry">
            <mxPoint x="360" y="150" as="sourcePoint" />
            <mxPoint x="505" y="150.0000000000001" as="targetPoint" />
          </mxGeometry>
        </mxCell>
        <mxCell id="708Kx1LHansNs96wbsgi-30" value="" style="endArrow=classic;html=1;rounded=1;" edge="1" parent="1">
          <mxGeometry width="50" height="50" relative="1" as="geometry">
            <mxPoint x="522" y="151" as="sourcePoint" />
            <mxPoint x="540" y="175" as="targetPoint" />
            <Array as="points">
              <mxPoint x="557" y="151" />
              <mxPoint x="587" y="151" />
              <mxPoint x="587" y="175" />
            </Array>
          </mxGeometry>
        </mxCell>
        <mxCell id="708Kx1LHansNs96wbsgi-31" value="&lt;font style=&quot;font-size: 11px;&quot;&gt;Leer base &lt;br&gt;de datos&lt;/font&gt;" style="text;html=1;align=center;verticalAlign=middle;resizable=0;points=[];autosize=1;strokeColor=none;fillColor=none;" vertex="1" parent="1">
          <mxGeometry x="591" y="143" width="70" height="40" as="geometry" />
        </mxCell>
        <mxCell id="708Kx1LHansNs96wbsgi-32" value="Datos de usuarios + datasets" style="verticalAlign=bottom;endArrow=block;shadow=0;strokeWidth=1;dashed=1;" edge="1" parent="1">
          <mxGeometry relative="1" as="geometry">
            <mxPoint x="509" y="178" as="sourcePoint" />
            <mxPoint x="359" y="178" as="targetPoint" />
          </mxGeometry>
        </mxCell>
        <mxCell id="708Kx1LHansNs96wbsgi-33" value="Cliente OpenAI" style="shape=umlLifeline;perimeter=lifelinePerimeter;container=1;collapsible=0;recursiveResize=0;rounded=0;shadow=0;strokeWidth=1;" vertex="1" parent="1">
          <mxGeometry x="780" y="80" width="130" height="360" as="geometry" />
        </mxCell>
        <mxCell id="708Kx1LHansNs96wbsgi-34" value="" style="points=[];perimeter=orthogonalPerimeter;rounded=0;shadow=0;strokeWidth=1;" vertex="1" parent="708Kx1LHansNs96wbsgi-33">
          <mxGeometry x="58" y="270" width="10" height="70" as="geometry" />
        </mxCell>
        <mxCell id="708Kx1LHansNs96wbsgi-39" value="Datos dataset" style="verticalAlign=bottom;endArrow=block;shadow=0;strokeWidth=1;entryX=0.2;entryY=0.443;entryDx=0;entryDy=0;entryPerimeter=0;" edge="1" parent="1">
          <mxGeometry relative="1" as="geometry">
            <mxPoint x="521" y="287" as="sourcePoint" />
            <mxPoint x="680" y="286.884" as="targetPoint" />
          </mxGeometry>
        </mxCell>
        <mxCell id="708Kx1LHansNs96wbsgi-42" value="" style="endArrow=classic;html=1;rounded=1;entryX=0.95;entryY=0.907;entryDx=0;entryDy=0;entryPerimeter=0;" edge="1" parent="1">
          <mxGeometry width="50" height="50" relative="1" as="geometry">
            <mxPoint x="691" y="292" as="sourcePoint" />
            <mxPoint x="706.5" y="317.1199999999999" as="targetPoint" />
            <Array as="points">
              <mxPoint x="726" y="292" />
              <mxPoint x="756" y="292" />
              <mxPoint x="756" y="316" />
            </Array>
          </mxGeometry>
        </mxCell>
        <mxCell id="708Kx1LHansNs96wbsgi-43" value="&lt;font style=&quot;font-size: 11px;&quot;&gt;Cargar en &lt;br&gt;Base de datos&lt;/font&gt;" style="text;html=1;align=center;verticalAlign=middle;resizable=0;points=[];autosize=1;strokeColor=none;fillColor=none;" vertex="1" parent="1">
          <mxGeometry x="741" y="297" width="90" height="40" as="geometry" />
        </mxCell>
        <mxCell id="708Kx1LHansNs96wbsgi-44" value="Datos nuevo dataset" style="verticalAlign=bottom;endArrow=block;shadow=0;strokeWidth=1;dashed=1;" edge="1" parent="1">
          <mxGeometry relative="1" as="geometry">
            <mxPoint x="512" y="320" as="sourcePoint" />
            <mxPoint x="362" y="320" as="targetPoint" />
          </mxGeometry>
        </mxCell>
        <mxCell id="708Kx1LHansNs96wbsgi-46" value="Datos dataset" style="verticalAlign=bottom;endArrow=block;shadow=0;strokeWidth=1;entryX=0.469;entryY=0.518;entryDx=0;entryDy=0;entryPerimeter=0;" edge="1" parent="1">
          <mxGeometry relative="1" as="geometry">
            <mxPoint x="361" y="287" as="sourcePoint" />
            <mxPoint x="510.97" y="286.0640000000001" as="targetPoint" />
          </mxGeometry>
        </mxCell>
        <mxCell id="708Kx1LHansNs96wbsgi-47" value="Opci칩n crear usuario" style="verticalAlign=bottom;endArrow=block;entryX=0;entryY=0;shadow=0;strokeWidth=1;" edge="1" parent="1">
          <mxGeometry relative="1" as="geometry">
            <mxPoint x="175" y="211.0000000000001" as="sourcePoint" />
            <mxPoint x="345" y="211.0000000000001" as="targetPoint" />
          </mxGeometry>
        </mxCell>
        <mxCell id="708Kx1LHansNs96wbsgi-48" value="Datos usuario" style="verticalAlign=bottom;endArrow=block;shadow=0;strokeWidth=1;rounded=0;" edge="1" parent="1">
          <mxGeometry relative="1" as="geometry">
            <mxPoint x="360" y="212" as="sourcePoint" />
            <mxPoint x="510" y="211" as="targetPoint" />
          </mxGeometry>
        </mxCell>
        <mxCell id="708Kx1LHansNs96wbsgi-49" value="" style="endArrow=classic;html=1;rounded=1;" edge="1" parent="1">
          <mxGeometry width="50" height="50" relative="1" as="geometry">
            <mxPoint x="522" y="210" as="sourcePoint" />
            <mxPoint x="540" y="234" as="targetPoint" />
            <Array as="points">
              <mxPoint x="557" y="210" />
              <mxPoint x="587" y="210" />
              <mxPoint x="587" y="234" />
            </Array>
          </mxGeometry>
        </mxCell>
        <mxCell id="708Kx1LHansNs96wbsgi-50" value="&lt;font style=&quot;font-size: 11px;&quot;&gt;Registro en &lt;br&gt;Base de datos&lt;/font&gt;" style="text;html=1;align=center;verticalAlign=middle;resizable=0;points=[];autosize=1;strokeColor=none;fillColor=none;" vertex="1" parent="1">
          <mxGeometry x="584" y="200" width="90" height="40" as="geometry" />
        </mxCell>
        <mxCell id="708Kx1LHansNs96wbsgi-51" value="Registro Ok" style="verticalAlign=bottom;endArrow=block;shadow=0;strokeWidth=1;dashed=1;" edge="1" parent="1">
          <mxGeometry relative="1" as="geometry">
            <mxPoint x="510" y="240" as="sourcePoint" />
            <mxPoint x="360" y="240" as="targetPoint" />
          </mxGeometry>
        </mxCell>
        <mxCell id="708Kx1LHansNs96wbsgi-52" value="Datos actualizados" style="verticalAlign=bottom;endArrow=block;shadow=0;strokeWidth=1;dashed=1;" edge="1" parent="1">
          <mxGeometry relative="1" as="geometry">
            <mxPoint x="344" y="240" as="sourcePoint" />
            <mxPoint x="175.5" y="240" as="targetPoint" />
          </mxGeometry>
        </mxCell>
        <mxCell id="708Kx1LHansNs96wbsgi-55" value="Selecci칩n de rese침as a procesar" style="verticalAlign=bottom;endArrow=block;shadow=0;strokeWidth=1;" edge="1" parent="1">
          <mxGeometry relative="1" as="geometry">
            <mxPoint x="529" y="365" as="sourcePoint" />
            <mxPoint x="837" y="365" as="targetPoint" />
          </mxGeometry>
        </mxCell>
        <mxCell id="708Kx1LHansNs96wbsgi-56" value="" style="endArrow=classic;html=1;rounded=1;entryX=0.95;entryY=0.907;entryDx=0;entryDy=0;entryPerimeter=0;" edge="1" parent="1">
          <mxGeometry width="50" height="50" relative="1" as="geometry">
            <mxPoint x="850" y="365" as="sourcePoint" />
            <mxPoint x="865.5" y="390.1199999999999" as="targetPoint" />
            <Array as="points">
              <mxPoint x="885" y="365" />
              <mxPoint x="915" y="365" />
              <mxPoint x="915" y="389" />
            </Array>
          </mxGeometry>
        </mxCell>
        <mxCell id="708Kx1LHansNs96wbsgi-57" value="&lt;font style=&quot;font-size: 11px;&quot;&gt;Cargar en &lt;br&gt;Base de datos&lt;/font&gt;" style="text;html=1;align=center;verticalAlign=middle;resizable=0;points=[];autosize=1;strokeColor=none;fillColor=none;" vertex="1" parent="1">
          <mxGeometry x="900" y="376" width="90" height="40" as="geometry" />
        </mxCell>
        <mxCell id="708Kx1LHansNs96wbsgi-58" value="Proceso terminado" style="verticalAlign=bottom;endArrow=open;dashed=1;endSize=8;shadow=0;strokeWidth=1;" edge="1" parent="1">
          <mxGeometry relative="1" as="geometry">
            <mxPoint x="523" y="396" as="targetPoint" />
            <mxPoint x="834.5" y="396.0799999999999" as="sourcePoint" />
          </mxGeometry>
        </mxCell>
      </root>
    </mxGraphModel>
  </diagram>
</mxfile>
